<svg width="217" height="52" viewBox="0 0 123 40" fill="none" xmlns="http://www.w3.org/2000/svg" class="_logo_1ajvh_1"><path d="M50.2993 35.2523L49.9199 35.7427C49.189 36.6402 48.2915 37.1583 47.2182 37.2879C47.0609 37.3064 46.9036 37.3249 46.7463 37.3249C46.3022 37.3249 45.8673 37.2508 45.4417 37.1121C44.9976 36.9733 44.5997 36.742 44.2296 36.4644C43.3414 35.7149 42.8325 34.8082 42.7029 33.7349C42.6844 33.5591 42.6752 33.3833 42.6752 33.2167C42.6752 32.7726 42.7399 32.3378 42.888 31.9121C43.0268 31.4773 43.2581 31.0887 43.5357 30.7001C44.2666 29.8026 45.1641 29.2844 46.2374 29.1549C46.4132 29.1364 46.5797 29.1179 46.7463 29.1179C47.1904 29.1179 47.6068 29.1919 48.0416 29.3307C48.4673 29.4695 48.8651 29.6915 49.2352 29.9691L49.7071 30.367L50.4658 29.3769L49.9847 29.0068C49.4943 28.6275 48.9669 28.3407 48.421 28.1463C47.8659 27.9613 47.2922 27.8688 46.7185 27.8688C46.515 27.8688 46.3114 27.8688 46.0894 27.8965C44.6922 28.0723 43.5172 28.7385 42.5641 29.9043C42.1848 30.3947 41.898 30.9221 41.7037 31.4865C41.5186 32.0417 41.4261 32.6153 41.4261 33.189C41.4261 33.4018 41.4446 33.6239 41.4631 33.8367C41.6389 35.2338 42.2958 36.4181 43.4339 37.3804C43.9243 37.769 44.4517 38.0558 44.9976 38.2501C45.5527 38.4444 46.1264 38.537 46.6908 38.537C46.9036 38.537 47.1349 38.5184 47.3385 38.4907C48.7356 38.3149 49.9107 37.6487 50.8637 36.4829L51.2338 36.0018L50.2715 35.2245L50.29 35.243L50.2993 35.2523Z" fill="white"></path><path d="M63.993 30.6631C63.5212 29.8488 62.8642 29.2012 62.0685 28.72C61.2728 28.2389 60.3938 27.9983 59.4315 27.9983C58.4693 27.9983 57.581 28.2481 56.7853 28.7293C55.9896 29.2104 55.3419 29.8581 54.87 30.6723C54.3982 31.4773 54.1576 32.3655 54.1576 33.3278C54.1576 34.29 54.3982 35.1783 54.87 35.9833C55.3512 36.7975 55.9988 37.4452 56.7946 37.9263C57.5903 38.4167 58.4785 38.6572 59.4315 38.6572C60.1532 38.6572 60.8379 38.5277 61.4764 38.2409C62.124 37.9541 62.6884 37.5747 63.1696 37.0936C63.6507 36.6124 64.0208 36.048 64.2984 35.3911C64.5759 34.7434 64.7147 34.0495 64.7147 33.3278C64.7147 32.3563 64.4649 31.468 63.993 30.6631ZM62.9475 35.4096C62.5774 36.0295 62.0963 36.5199 61.4856 36.8808C60.8657 37.2509 60.1902 37.4267 59.4408 37.4267C58.6913 37.4267 57.9789 37.2509 57.3775 36.8808C56.7576 36.5107 56.2764 36.0203 55.9156 35.4096C55.5547 34.7804 55.3697 34.0957 55.3697 33.337C55.3697 32.5783 55.5547 31.8659 55.9156 31.246C56.2857 30.6168 56.7668 30.1357 57.3775 29.7748C57.9974 29.4047 58.6728 29.2289 59.4315 29.2289C60.1903 29.2289 60.8842 29.4047 61.4949 29.7748C62.1055 30.1449 62.5867 30.626 62.9475 31.246C63.3176 31.8751 63.4934 32.5598 63.4934 33.337C63.4934 34.1142 63.3084 34.8082 62.9475 35.4189V35.4096Z" fill="white"></path><path d="M77.9181 28.4887V29.7286C77.8071 29.5157 77.548 29.2844 77.1687 29.0161C76.7801 28.7478 76.2897 28.5072 75.7068 28.3037C75.1331 28.0909 74.4947 27.9891 73.8378 27.9891C72.8755 27.9891 71.9965 28.2296 71.2008 28.7108C70.4051 29.1919 69.7574 29.8396 69.2763 30.6538C68.8044 31.4588 68.5638 32.3563 68.5638 33.3185C68.5638 34.2808 68.8044 35.1783 69.2763 35.974C69.7481 36.7697 70.4051 37.4267 71.2008 37.9078C71.9965 38.3982 72.8848 38.6387 73.8378 38.6387C74.5039 38.6387 75.1331 38.537 75.7068 38.3149C76.2897 38.1021 76.7708 37.8615 77.1687 37.6025C77.548 37.3341 77.7978 37.1028 77.9181 36.8993V38.5925H79.1395V28.4702H77.9181V28.4887ZM77.3537 35.4004C76.9929 36.0295 76.5117 36.5199 75.8918 36.8715C75.2812 37.2416 74.5965 37.4174 73.847 37.4174C73.0976 37.4174 72.3944 37.2416 71.7929 36.8715C71.173 36.5014 70.6919 36.011 70.3311 35.4004C69.9609 34.7804 69.7851 34.0865 69.7851 33.3185C69.7851 32.5506 69.9609 31.8474 70.3311 31.2275C70.7012 30.5983 71.1823 30.1172 71.7929 29.7563C72.4036 29.3862 73.0883 29.2104 73.8563 29.2104C74.6242 29.2104 75.3089 29.3955 75.9103 29.7563C76.5302 30.1264 77.0114 30.6168 77.3722 31.2275C77.7331 31.8474 77.9089 32.5413 77.9089 33.3093C77.9089 34.0772 77.7331 34.7712 77.363 35.3911L77.3537 35.4004Z" fill="white"></path><path d="M85.0333 24.0012V38.5925H86.2547V24.0012H85.0333Z" fill="white"></path><path d="M100.069 28.4887V29.7286C99.9577 29.5157 99.6986 29.2844 99.3192 29.0161C98.9306 28.7478 98.4495 28.5072 97.8666 28.3037C97.2837 28.0909 96.6545 27.9891 95.9883 27.9891C95.0353 27.9891 94.1471 28.2296 93.3514 28.7108C92.5556 29.1919 91.908 29.8396 91.4268 30.6538C90.9549 31.4588 90.7144 32.3563 90.7144 33.3185C90.7144 34.2808 90.9549 35.1783 91.4268 35.974C91.8987 36.7697 92.5556 37.4267 93.3514 37.9078C94.1471 38.3982 95.0353 38.6387 95.9883 38.6387C96.6545 38.6387 97.2837 38.537 97.8666 38.3149C98.4402 38.1021 98.9214 37.8615 99.3192 37.6025C99.6986 37.3341 99.9484 37.1028 100.069 36.8993V38.5925H101.29V28.4702H100.069V28.4887ZM99.5228 35.4004C99.1527 36.0295 98.6716 36.5199 98.0701 36.8715C97.4502 37.2416 96.7748 37.4174 96.0161 37.4174C95.2574 37.4174 94.5727 37.2416 93.962 36.8715C93.3421 36.5014 92.861 36.011 92.5001 35.4004C92.1393 34.7804 91.9635 34.0865 91.9635 33.3185C91.9635 32.5506 92.1485 31.8474 92.5001 31.2275C92.8702 30.5983 93.3514 30.1172 93.962 29.7563C94.5727 29.3862 95.2574 29.2104 96.0253 29.2104C96.7933 29.2104 97.478 29.3955 98.0794 29.7563C98.6993 30.1264 99.1805 30.6168 99.5321 31.2275C99.8929 31.8474 100.069 32.5413 100.069 33.3093C100.069 34.0772 99.8929 34.7712 99.5321 35.3911L99.5228 35.4004Z" fill="white"></path><path d="M73.8283 8.40145C73.412 7.21713 72.8198 6.21785 72.0611 5.40363C71.3024 4.58941 70.3956 3.96949 69.3316 3.55312C68.2675 3.13676 67.0925 2.92395 65.8249 2.92395C64.5573 2.92395 63.3822 3.13676 62.3182 3.55312C61.2541 3.96949 60.3474 4.58941 59.5887 5.40363C58.83 6.21785 58.2378 7.21713 57.8214 8.40145C57.3958 9.59503 57.1923 10.9552 57.1923 12.4818C57.1923 14.0085 57.4051 15.3779 57.8214 16.5714C58.2378 17.7558 58.83 18.755 59.5887 19.5693C60.3474 20.3742 61.2541 20.9942 62.3182 21.4198C63.3822 21.8361 64.5573 22.0489 65.8249 22.0489C67.0925 22.0489 68.2675 21.8361 69.3316 21.4198C70.3956 20.9942 71.3024 20.3742 72.0611 19.5693C72.8198 18.755 73.412 17.7558 73.8283 16.5714C74.2447 15.3779 74.4575 14.0177 74.4575 12.4818C74.4575 10.9459 74.2447 9.59503 73.8283 8.40145ZM69.5074 16.7935C69.2576 17.9316 68.9337 18.8476 68.5359 19.523C68.1473 20.2077 67.7124 20.6888 67.2313 20.9664C66.7501 21.244 66.2783 21.3828 65.8341 21.3828C65.39 21.3828 64.9089 21.244 64.437 20.9664C63.9651 20.6796 63.521 20.2077 63.1324 19.523C62.7345 18.8476 62.4199 17.9316 62.1609 16.7935C61.9111 15.6554 61.7815 14.212 61.7815 12.4911C61.7815 10.7701 61.9111 9.33596 62.1609 8.18864C62.4107 7.04133 62.7345 6.13458 63.1324 5.45915C63.521 4.77446 63.9559 4.29333 64.437 4.01575C64.9181 3.73817 65.39 3.59939 65.8341 3.59939C66.2783 3.59939 66.7501 3.72892 67.2313 4.01575C67.7031 4.30258 68.1473 4.77446 68.5359 5.45915C68.9337 6.13458 69.2483 7.05058 69.5074 8.18864C69.7572 9.32671 69.8867 10.7701 69.8867 12.4911C69.8867 14.212 69.7572 15.6554 69.5074 16.7935Z" fill="white"></path><path d="M92.2042 3.31248V3.71034C91.8341 3.71034 91.538 3.71034 91.316 3.72885C91.0847 3.72885 90.8996 3.77511 90.7516 3.82137C90.6035 3.87689 90.4833 3.95091 90.3815 4.06194C90.2797 4.16372 90.1872 4.31176 90.0947 4.50606L85.5239 14.5821V19.3009C85.5239 19.5784 85.5239 19.819 85.5424 20.0411C85.5609 20.3279 85.6164 20.5592 85.7182 20.735C85.8107 20.9108 85.968 21.0403 86.1901 21.1329C86.2641 21.1606 86.3381 21.1791 86.4399 21.1976C86.6157 21.2439 86.8378 21.2532 87.0968 21.2532V21.6418H79.63V21.2532C80.0279 21.2532 80.3425 21.2069 80.546 21.1236C80.7588 21.0311 80.9161 20.9108 81.0087 20.7258C81.0457 20.661 81.0734 20.587 81.1012 20.4944C81.1382 20.3649 81.1567 20.2076 81.1752 20.0318V19.9671C81.1937 19.6895 81.1937 19.3749 81.1937 19.0233V14.8319L76.5582 5.53309C76.5304 5.47758 76.5119 5.44057 76.4749 5.40356L75.8272 4.23774C75.7255 4.06194 75.5774 3.9324 75.3554 3.83988C75.2813 3.81212 75.2073 3.79362 75.1055 3.77511C74.9297 3.72885 74.7077 3.7196 74.4486 3.7196V3.32174H77.3169C77.4464 3.32174 77.5852 3.32174 77.7055 3.34024C78.5937 3.38651 79.3154 3.61782 79.8706 4.00643C80.0834 4.15447 80.2685 4.31176 80.435 4.4783C80.6108 4.6356 80.7773 4.79289 80.8976 4.99645C81.6563 6.24554 85.2001 13.2775 85.2001 13.2775L89.1694 4.50606C89.2249 4.39503 89.2527 4.29325 89.2527 4.21923C89.2527 3.96941 89.0584 3.83063 88.6975 3.78436C88.3182 3.7381 87.8278 3.7196 87.2171 3.7196V3.32174H92.2135L92.2042 3.31248Z" fill="white"></path><path d="M55.601 21.1794C55.5085 21.1608 55.4252 21.1331 55.3512 21.1146C55.1384 21.0221 55.0181 20.9018 54.8793 20.7167C54.8793 20.7167 54.2039 19.995 50.7157 12.9168C50.5029 12.4912 50.4751 12.3709 50.0217 12.1581C50.4196 12.1026 50.8082 12.0193 51.1691 11.9176C52.1961 11.64 53.0381 11.2329 53.6857 10.6777C53.7598 10.613 53.8338 10.5482 53.8986 10.4649C54.6203 9.75247 54.9904 8.87348 54.9904 7.82794C54.9904 7.1155 54.8146 6.46782 54.4722 5.91267C54.1391 5.35751 53.6395 4.88564 53.0011 4.50628C52.3626 4.12693 51.5669 3.82159 50.6602 3.60879C50.1143 3.47925 49.5314 3.39598 48.9114 3.35897C48.4858 3.3127 48.0417 3.30345 47.5883 3.30345H40.2603V3.70131C40.6582 3.70131 40.9728 3.74757 41.1763 3.83085C41.3891 3.92337 41.5464 4.04365 41.6389 4.22871C41.7315 4.4045 41.787 4.62656 41.8147 4.90414C41.8332 5.19097 41.8425 5.53331 41.8425 5.92192V19.0143C41.8425 19.3936 41.824 19.736 41.8147 20.032C41.7962 20.3189 41.7407 20.5502 41.6389 20.726C41.5464 20.9018 41.3891 21.0313 41.1763 21.1238C41.1301 21.1423 41.0653 21.1608 41.0005 21.1794C40.8062 21.2256 40.5564 21.2534 40.2603 21.2534V21.642H47.7271V21.2534C47.3478 21.2534 47.0424 21.2071 46.8296 21.1238C46.6168 21.0313 46.4503 20.911 46.3577 20.726C46.2652 20.5502 46.2097 20.3281 46.1819 20.032C46.1634 19.7452 46.1542 19.4029 46.1542 19.0143V12.3432H46.5705C46.7741 12.63 49.7072 19.4121 49.7072 19.4121C49.8367 19.7082 49.9847 19.995 50.1698 20.2726C50.2068 20.3281 50.6324 20.8555 50.836 21.0313C51.095 21.2534 51.4096 21.4292 51.7797 21.5772C51.8352 21.5957 51.8908 21.6235 51.9555 21.6235H56.2672V21.2349C56.0174 21.2349 55.7953 21.2164 55.6103 21.1794H55.601ZM49.4018 10.798C49.4018 10.798 49.3556 10.8443 49.3278 10.8628C49.0317 11.1404 48.7356 11.3347 48.4211 11.4827C48.0787 11.6307 47.8011 11.6955 47.5976 11.6955H46.1542V3.96963H47.5976C47.6716 3.96963 47.7549 3.96963 47.8474 4.00664C48.0139 4.04365 48.199 4.09917 48.4118 4.20095C48.7541 4.33974 49.078 4.5803 49.3926 4.89489C49.7072 5.20947 49.9755 5.60733 50.2068 6.10697C50.4289 6.59735 50.5399 7.18026 50.5399 7.86495C50.5399 8.54964 50.4289 9.13255 50.2068 9.61368V9.63219C49.9755 10.1133 49.7164 10.5112 49.4018 10.8073V10.798Z" fill="white"></path><path opacity="0.43" d="M87.2909 20.7258V20.7443H84.9686C84.839 20.7443 84.7095 20.7443 84.58 20.7258H87.3002H87.2909Z" fill="white"></path><path d="M105.953 21.1791C105.851 21.1606 105.777 21.1329 105.703 21.1144C105.491 21.0218 105.333 20.9016 105.231 20.7165L105.176 20.587L104.769 19.6247V19.6062L97.8665 3.33099L93.9897 3.31248V3.71034C94.2395 3.71034 94.4615 3.72885 94.6466 3.76586C94.7391 3.78436 94.8224 3.81212 94.8964 3.83063C95.1092 3.92315 95.2758 4.04344 95.3683 4.22849L96.1085 5.53309L89.9648 20.4574C89.9 20.6332 89.7057 20.809 89.3726 20.9756C89.0488 21.1514 88.6787 21.2439 88.2623 21.2439V21.6325H92.4537V21.2439C92.0096 21.2439 91.621 21.2069 91.2416 21.1514C90.8715 21.0959 90.6957 20.9386 90.6957 20.6887C90.6957 20.6425 90.7143 20.5592 90.742 20.4574L92.4722 16.266H98.7269L100.059 19.4119C100.189 19.708 100.337 19.9948 100.522 20.2724C100.559 20.3279 100.975 20.8553 101.188 21.0311C101.447 21.2532 101.762 21.429 102.132 21.577C102.187 21.5955 102.243 21.6233 102.308 21.6233H106.619V21.2346C106.37 21.2346 106.147 21.2161 105.962 21.1791H105.953ZM92.7128 15.6369L95.5718 8.74372L98.4494 15.6369H92.7128Z" fill="white"></path><path d="M121.803 17.4689C121.803 17.8852 121.803 18.3109 121.775 18.7365C121.757 19.1714 121.701 19.5415 121.599 19.8745C121.488 20.1984 121.313 20.476 121.081 20.6795C120.841 20.8923 120.526 20.9941 120.101 20.9941H114.466V5.94948C114.466 5.55162 114.484 5.20927 114.493 4.9317C114.512 4.64487 114.567 4.42281 114.669 4.25626C114.762 4.08046 114.919 3.95093 115.141 3.8584C115.354 3.76588 115.659 3.72887 116.039 3.72887V3.33101H108.572V3.72887C108.97 3.72887 109.275 3.77513 109.488 3.8584C109.636 3.91392 109.756 3.99719 109.849 4.10822C109.886 4.15448 109.923 4.20075 109.95 4.24701C110.052 4.42281 110.099 4.64487 110.126 4.92245C110.145 5.20927 110.154 5.55162 110.154 5.94022V19.0326C110.154 19.4304 110.136 19.782 110.126 20.0596C110.108 20.3372 110.052 20.5685 109.95 20.7535C109.858 20.9386 109.701 21.0681 109.488 21.1421C109.284 21.2254 108.97 21.2717 108.572 21.2717V21.6603H122.58V17.4689H121.784H121.803Z" fill="white"></path><path d="M18.7207 14.8225C18.5912 14.8225 18.656 14.5727 18.5264 14.2674C18.1286 13.3606 17.2033 13.0738 17.2218 12.9813C17.2588 12.8147 18.1933 13.0368 18.582 13.7492C18.8503 14.2304 18.841 14.804 18.7207 14.8133V14.8225Z" fill="#00FAB9"></path><path d="M18.7112 14.8131C18.5816 14.8224 18.6464 14.5633 18.5169 14.258C18.119 13.3512 17.1937 13.0644 17.2122 12.9719C17.2493 12.8053 18.1838 13.0274 18.5724 13.7398C18.8407 14.2209 18.8314 14.7946 18.7112 14.8039V14.8131Z" fill="#00FAB9"></path><path d="M34.4312 9.85375C34.6903 7.60538 30.6099 4.25596 27.9267 5.03318C24.6235 6.94845 23.9666 5.01467 17.2215 5.01467C10.4764 5.01467 9.81945 6.94845 6.51629 5.03318C3.83306 4.25596 -0.247314 7.60538 0.0117575 9.85375C0.206061 9.3356 0.474384 9.61318 0.289334 10.0666C-0.0530103 10.9085 -0.0345052 11.8615 0.141293 12.7961C0.363354 12.7498 0.557657 11.9633 0.761213 12.7961C1.02028 13.7676 1.41814 14.7761 2.1861 15.4608C2.7135 14.5725 2.98182 15.5533 3.29641 15.6736C4.37895 16.5803 6.71059 15.6181 6.59031 17.4038C-3.26364 24.0841 0.344849 41.1088 13.4464 39.943C14.9361 39.7857 16.1852 38.9252 16.3055 37.6484C16.3055 37.6484 16.6386 35.5758 15.6485 34.2527C14.8621 35.1132 13.7795 35.9829 11.9013 34.7523C8.76466 32.7075 10.939 26.7951 17.2215 22.465C23.5039 26.7951 25.6783 32.7075 22.5417 34.7523C20.6634 35.9829 19.5809 35.1132 18.7944 34.2527C17.8044 35.5758 18.1375 37.6484 18.1375 37.6484C18.2578 38.9252 19.5069 39.7857 20.9965 39.943C34.0981 41.1088 37.7066 24.0841 27.8526 17.4038C27.7324 15.6181 30.064 16.5803 31.1465 15.6736C31.4611 15.5533 31.7295 14.5725 32.2569 15.4608C33.0248 14.7761 33.4227 13.7676 33.6817 12.7961C33.8853 11.9633 34.0796 12.7498 34.3017 12.7961C34.4775 11.8615 34.496 10.9085 34.1536 10.0666C33.9686 9.61318 34.2369 9.3356 34.4312 9.85375ZM11.8735 14.1562C11.1055 14.1562 10.4764 13.5363 10.4764 12.7683C10.4764 12.0003 11.1055 11.3712 11.8735 11.3712C12.6415 11.3712 13.2706 11.9911 13.2706 12.7683C13.2706 13.5455 12.6415 14.1562 11.8735 14.1562ZM17.3047 19.7077H17.1382C13.0948 19.7077 14.3254 12.1669 17.2215 12.1669C20.1175 12.1669 21.3481 19.7077 17.3047 19.7077ZM22.5694 14.1562C21.8015 14.1562 21.1723 13.5363 21.1723 12.7683C21.1723 12.0003 21.8015 11.3712 22.5694 11.3712C23.3374 11.3712 23.9666 11.9911 23.9666 12.7683C23.9666 13.5455 23.3374 14.1562 22.5694 14.1562Z" fill="#00FAB9"></path><path d="M24.6051 0.73095C24.1332 1.96154 23.7539 3.04408 23.3005 4.08962C23.2265 4.27467 22.8656 4.41346 22.6528 4.3672C21.8201 4.21916 19.6365 3.87681 17.2308 3.87681C14.8252 3.87681 12.6416 4.21916 11.8089 4.3672C11.596 4.41346 11.2352 4.27467 11.1612 4.08962C10.7078 3.04408 10.3284 1.96154 9.85657 0.73095L13.9925 1.96154L17.2308 0L20.4692 1.96154L24.6051 0.73095Z" fill="#00FAB9"></path></svg>